<svg width="21" height="21" viewBox="0 0 21 21" fill="none" xmlns="http://www.w3.org/2000/svg">
<path fill-rule="evenodd" clip-rule="evenodd" d="M6.36068 18.0516C6.78268 18.0516 7.12568 18.3946 7.12568 18.8166C7.12568 19.2386 6.78268 19.5806 6.36068 19.5806C5.93868 19.5806 5.59668 19.2386 5.59668 18.8166C5.59668 18.3946 5.93868 18.0516 6.36068 18.0516Z" stroke="#008ECC" stroke-width="1.5" stroke-linecap="round" stroke-linejoin="round"/>
<path fill-rule="evenodd" clip-rule="evenodd" d="M17.6131 18.0516C18.0351 18.0516 18.3781 18.3946 18.3781 18.8166C18.3781 19.2386 18.0351 19.5806 17.6131 19.5806C17.1911 19.5806 16.8481 19.2386 16.8481 18.8166C16.8481 18.3946 17.1911 18.0516 17.6131 18.0516Z" stroke="#008ECC" stroke-width="1.5" stroke-linecap="round" stroke-linejoin="round"/>
<path d="M1.68823 1.48132L3.76823 1.84132L4.73123 13.3143C4.80923 14.2493 5.59023 14.9673 6.52823 14.9673H17.4402C18.3362 14.9673 19.0962 14.3093 19.2252 13.4213L20.1742 6.86332C20.2912 6.05432 19.6642 5.33032 18.8472 5.33032H4.10223" stroke="#008ECC" stroke-width="1.5" stroke-linecap="round" stroke-linejoin="round"/>
<path d="M13.0637 9.02637H15.8367" stroke="#008ECC" stroke-width="1.5" stroke-linecap="round" stroke-linejoin="round"/>
</svg>
