<svg width="18" height="18" viewBox="0 0 18 18" fill="none" xmlns="http://www.w3.org/2000/svg">
<path fill-rule="evenodd" clip-rule="evenodd" d="M3.59584 5.29181C3.59584 4.35506 4.35559 3.59531 5.29159 3.59531H6.06334C6.51034 3.59531 6.94009 3.41831 7.25809 3.10256L7.79734 2.56256C8.45809 1.89881 9.53209 1.89581 10.1958 2.55656L10.2026 2.56256L10.7426 3.10256C11.0598 3.41831 11.4896 3.59531 11.9373 3.59531H12.7083C13.6451 3.59531 14.4048 4.35506 14.4048 5.29181V6.06206C14.4048 6.51056 14.5818 6.93956 14.8976 7.25756L15.4376 7.79756C16.1013 8.45831 16.1051 9.53156 15.4443 10.1961L15.4376 10.2028L14.8976 10.7428C14.5818 11.0593 14.4048 11.4898 14.4048 11.9368V12.7086C14.4048 13.6453 13.6451 14.4043 12.7083 14.4043H11.9373C11.4896 14.4043 11.0598 14.5821 10.7426 14.8978L10.2026 15.4371C9.54259 16.1016 8.46859 16.1046 7.80409 15.4438C7.80184 15.4416 7.79959 15.4393 7.79734 15.4371L7.25809 14.8978C6.94009 14.5821 6.51034 14.4043 6.06334 14.4043H5.29159C4.35559 14.4043 3.59584 13.6453 3.59584 12.7086V11.9368C3.59584 11.4898 3.41809 11.0593 3.10234 10.7428L2.56309 10.2028C1.89859 9.54206 1.89559 8.46806 2.55634 7.80431L2.56309 7.79756L3.10234 7.25756C3.41809 6.93956 3.59584 6.51056 3.59584 6.06206V5.29181Z" stroke="#008ECC" stroke-linecap="round" stroke-linejoin="round"/>
<path d="M7.07251 10.9271L10.9275 7.07214" stroke="#008ECC" stroke-linecap="round" stroke-linejoin="round"/>
<path d="M10.925 11.4918C10.775 11.4918 10.6325 11.4318 10.5275 11.3268C10.475 11.2743 10.4375 11.2068 10.4075 11.1393C10.3775 11.0718 10.3625 11.005 10.3625 10.9293C10.3625 10.8543 10.3775 10.7793 10.4075 10.7118C10.4375 10.6443 10.475 10.5843 10.5275 10.5318C10.7375 10.3218 11.1125 10.3218 11.3225 10.5318C11.375 10.5843 11.42 10.6443 11.45 10.7118C11.4725 10.7793 11.4875 10.8543 11.4875 10.9293C11.4875 11.005 11.4725 11.0718 11.45 11.1393C11.42 11.2068 11.375 11.2743 11.3225 11.3268C11.2175 11.4318 11.075 11.4918 10.925 11.4918Z" fill="#008ECC"/>
<path d="M7.07007 7.63711C6.99507 7.63711 6.92757 7.62136 6.86007 7.59136C6.79257 7.56136 6.72507 7.52461 6.67257 7.47211C6.62007 7.41211 6.58257 7.35211 6.55257 7.28461C6.52257 7.21636 6.50757 7.14961 6.50757 7.07461C6.50757 6.99886 6.52257 6.92461 6.55257 6.85711C6.58257 6.78961 6.62007 6.72211 6.67257 6.67711C6.89007 6.46636 7.25757 6.46636 7.46757 6.67711C7.57257 6.78136 7.63257 6.92461 7.63257 7.07461C7.63257 7.14961 7.62507 7.21636 7.59507 7.28461C7.56507 7.35211 7.52007 7.41211 7.46757 7.47211C7.41507 7.52461 7.35507 7.56136 7.28757 7.59136C7.22007 7.62136 7.14507 7.63711 7.07007 7.63711Z" fill="#008ECC"/>
</svg>
