<svg width="80" height="32" viewBox="0 0 80 32" fill="none" xmlns="http://www.w3.org/2000/svg">
<path d="M13.3184 9.28039L11.9366 17.619H10.4833L11.0908 13.9977H7.39796L6.79043 17.619H5.34904L6.73087 9.28039H8.18417L7.58855 12.8541H11.2814L11.877 9.28039H13.3184ZM16.162 17.6428C15.3202 17.6428 14.6849 17.3967 14.256 16.9043C13.8272 16.404 13.6127 15.7647 13.6127 14.9864C13.6127 14.2717 13.7636 13.6204 14.0654 13.0328C14.3751 12.4451 14.808 11.9805 15.3639 11.639C15.9198 11.2896 16.5591 11.1149 17.2817 11.1149C18.0759 11.1149 18.6596 11.2856 19.0329 11.6271C19.4141 11.9607 19.6046 12.3697 19.6046 12.8541C19.6046 13.1876 19.5133 13.5013 19.3307 13.7952C19.148 14.089 18.8621 14.3272 18.473 14.5099C18.0918 14.6926 17.6113 14.7839 17.0316 14.7839H14.9946L14.9827 14.8792C14.9747 14.9348 14.9708 15.0142 14.9708 15.1174C14.9708 15.4986 15.0899 15.8242 15.3281 16.0942C15.5743 16.3563 15.8999 16.4873 16.3049 16.4873C16.6305 16.4873 16.9283 16.404 17.1984 16.2372C17.4684 16.0704 17.6788 15.8481 17.8297 15.5701H19.2473C18.9932 16.1816 18.604 16.6819 18.0799 17.0711C17.5557 17.4522 16.9164 17.6428 16.162 17.6428ZM17.0078 13.8309C17.4366 13.8309 17.7503 13.7475 17.9488 13.5807C18.1474 13.406 18.2466 13.2035 18.2466 12.9732C18.2466 12.7588 18.1553 12.5761 17.9727 12.4252C17.7979 12.2664 17.52 12.187 17.1388 12.187C16.6226 12.187 16.1898 12.3339 15.8404 12.6278C15.4909 12.9216 15.2686 13.3226 15.1733 13.8309H17.0078ZM21.2415 11.3293H22.671L22.5161 12.3299H22.5876C22.7385 12.052 22.9648 11.8177 23.2666 11.6271C23.5763 11.4286 23.9456 11.3293 24.3744 11.3293C24.5333 11.3293 24.6841 11.3492 24.8271 11.3889L24.5531 12.735C24.4419 12.6953 24.3427 12.6714 24.2553 12.6635C24.1759 12.6476 24.0647 12.6397 23.9218 12.6397C23.4373 12.6397 23.0482 12.7747 22.7543 13.0447C22.4684 13.3147 22.2778 13.7475 22.1826 14.3431L21.6227 17.619H20.1932L21.2415 11.3293ZM28.7817 9.84027C28.5276 9.84027 28.333 9.89189 28.198 9.99513C28.063 10.0984 27.9677 10.2215 27.9121 10.3644C27.8645 10.4994 27.8208 10.6821 27.7811 10.9124L27.7096 11.3293H29.1391L28.9604 12.461H27.519L26.4826 18.6673C26.2841 19.8824 25.5574 20.4899 24.3027 20.4899C24.128 20.4899 23.9413 20.478 23.7428 20.4542C23.5442 20.4303 23.4053 20.4065 23.3259 20.3827L23.4926 19.3701C23.6515 19.4098 23.85 19.4297 24.0882 19.4297C24.3424 19.4297 24.5369 19.3781 24.6719 19.2748C24.807 19.1716 24.8983 19.0485 24.9459 18.9055C25.0015 18.7626 25.0492 18.576 25.0889 18.3457L26.0776 12.461H25.2676L25.4462 11.3293H26.2682L26.3873 10.6384C26.4588 10.1619 26.6494 9.741 26.9591 9.37569C27.2688 9.00243 27.8049 8.81581 28.5673 8.81581C28.7499 8.81581 28.9405 8.82772 29.1391 8.85154C29.3376 8.87537 29.4686 8.90316 29.5322 8.93493L29.3773 9.88792C29.1867 9.85615 28.9882 9.84027 28.7817 9.84027ZM31.5759 17.6428C30.7341 17.6428 30.0988 17.3967 29.6699 16.9043C29.2411 16.404 29.0266 15.7647 29.0266 14.9864C29.0266 14.2717 29.1775 13.6204 29.4793 13.0328C29.789 12.4451 30.2219 11.9805 30.7778 11.639C31.3337 11.2896 31.973 11.1149 32.6956 11.1149C33.4898 11.1149 34.0735 11.2856 34.4468 11.6271C34.828 11.9607 35.0186 12.3697 35.0186 12.8541C35.0186 13.1876 34.9272 13.5013 34.7446 13.7952C34.5619 14.089 34.276 14.3272 33.8869 14.5099C33.5057 14.6926 33.0252 14.7839 32.4455 14.7839H30.4085L30.3966 14.8792C30.3886 14.9348 30.3847 15.0142 30.3847 15.1174C30.3847 15.4986 30.5038 15.8242 30.742 16.0942C30.9882 16.3563 31.3138 16.4873 31.7188 16.4873C32.0444 16.4873 32.3422 16.404 32.6123 16.2372C32.8823 16.0704 33.0927 15.8481 33.2436 15.5701H34.6612C34.4071 16.1816 34.0179 16.6819 33.4938 17.0711C32.9696 17.4522 32.3303 17.6428 31.5759 17.6428ZM32.4217 13.8309C32.8505 13.8309 33.1642 13.7475 33.3627 13.5807C33.5613 13.406 33.6605 13.2035 33.6605 12.9732C33.6605 12.7588 33.5692 12.5761 33.3866 12.4252C33.2118 12.2664 32.9339 12.187 32.5527 12.187C32.0365 12.187 31.6037 12.3339 31.2543 12.6278C30.9048 12.9216 30.6825 13.3226 30.5872 13.8309H32.4217ZM38.0729 15.5463C38.0253 15.8322 38.0015 16.0188 38.0015 16.1062C38.0015 16.2809 38.0571 16.4119 38.1682 16.4993C38.2794 16.5787 38.4819 16.6184 38.7758 16.6184C38.9108 16.6184 39.0974 16.5985 39.3357 16.5588L39.1689 17.5714C39.1212 17.5873 38.9823 17.6071 38.7519 17.6309C38.5216 17.6548 38.2993 17.6667 38.0849 17.6667C37.4892 17.6667 37.0763 17.5714 36.846 17.3808C36.6157 17.1822 36.5005 16.9043 36.5005 16.5469C36.5005 16.3245 36.5243 16.0942 36.572 15.856L37.1438 12.461H36.0598L36.2384 11.3293H37.3344L37.6798 9.28039H39.1093L38.7758 11.3293H40.2053L40.0266 12.461H38.5852L38.0729 15.5463ZM42.7719 18.5005C42.621 18.7864 42.4622 19.0406 42.2954 19.2629C42.1286 19.4853 41.8785 19.6957 41.5449 19.8943C41.2114 20.1008 40.8024 20.204 40.318 20.204C40.1035 20.204 39.9209 20.1841 39.77 20.1444C39.6191 20.1127 39.5317 20.0928 39.5079 20.0849L39.6747 19.0604C39.8018 19.0922 39.9685 19.1081 40.175 19.1081C40.5483 19.1081 40.8342 19.0207 41.0327 18.846C41.2392 18.6713 41.4536 18.3854 41.676 17.9883L41.9976 17.4165L40.7349 11.3293H42.2001L42.9387 15.8322H43.0101L45.333 11.3293H46.7983L42.7719 18.5005Z" fill="#3E5A64"/>
<path d="M46.9203 17.0499C46.9203 16.8672 46.9362 16.6528 46.968 16.4066C46.9997 16.1604 47.0593 15.8825 47.1467 15.5727C47.234 15.2551 47.3651 14.9017 47.5398 14.5126L49.005 15.0248C48.9176 15.271 48.8422 15.4973 48.7787 15.7038C48.7151 15.9023 48.6675 16.0889 48.6357 16.2637C48.6039 16.4304 48.5881 16.5972 48.5881 16.764C48.5881 17.0261 48.6436 17.2603 48.7548 17.4668C48.8739 17.6812 49.0447 17.8599 49.2671 18.0029C49.4894 18.1538 49.7594 18.2689 50.0771 18.3483C50.4027 18.4277 50.776 18.4674 51.1969 18.4674C51.6336 18.4674 52.0228 18.4476 52.3643 18.4079C52.7137 18.3682 53.0075 18.3086 53.2458 18.2292C53.492 18.1498 53.6786 18.0465 53.8057 17.9195C53.9327 17.8004 53.9963 17.6614 53.9963 17.5025C53.9963 17.4311 53.9685 17.3636 53.9129 17.3C53.8652 17.2365 53.7818 17.169 53.6627 17.0975C53.5515 17.0261 53.4006 16.9506 53.21 16.8712C53.0274 16.7918 52.805 16.7044 52.5429 16.6091L52.9361 14.9295C53.2775 15.0724 53.5992 15.1995 53.901 15.3107C54.2107 15.4139 54.5045 15.5013 54.7825 15.5727C55.0604 15.6363 55.3225 15.6879 55.5687 15.7276C55.8149 15.7594 56.0452 15.7753 56.2596 15.7753C56.5614 15.7753 56.7758 15.8547 56.9029 16.0135C57.0299 16.1644 57.0935 16.355 57.0935 16.5853C57.0935 16.8315 57.0101 17.038 56.8433 17.2047C56.6765 17.3636 56.4422 17.443 56.1405 17.443C56.0769 17.443 56.0134 17.443 55.9499 17.443C55.8943 17.443 55.8347 17.443 55.7712 17.443C55.7156 17.443 55.656 17.443 55.5925 17.443C55.6084 17.5224 55.6163 17.5899 55.6163 17.6455C55.6163 17.709 55.6163 17.7686 55.6163 17.8242C55.6163 18.0863 55.525 18.3523 55.3423 18.6223C55.1676 18.8923 54.8936 19.1425 54.5204 19.3728C54.1471 19.6031 53.6706 19.7857 53.0909 19.9207C52.5191 20.0637 51.8361 20.1352 51.042 20.1352C50.1843 20.1352 49.4457 20.024 48.8263 19.8016C48.2148 19.5872 47.7423 19.2497 47.4087 18.7891C47.0831 18.3364 46.9203 17.7567 46.9203 17.0499ZM52.2094 22.8988C51.9791 22.8988 51.7806 22.8154 51.6138 22.6487C51.455 22.4898 51.3755 22.2992 51.3755 22.0769C51.3755 21.8466 51.455 21.648 51.6138 21.4813C51.7806 21.3145 51.9791 21.2311 52.2094 21.2311C52.4318 21.2311 52.6224 21.3145 52.7812 21.4813C52.94 21.648 53.0194 21.8466 53.0194 22.0769C53.0194 22.2992 52.94 22.4898 52.7812 22.6487C52.6224 22.8154 52.4318 22.8988 52.2094 22.8988ZM50.1486 22.8988C49.9183 22.8988 49.7197 22.8154 49.553 22.6487C49.3941 22.4898 49.3147 22.2992 49.3147 22.0769C49.3147 21.8466 49.3941 21.648 49.553 21.4813C49.7197 21.3145 49.9183 21.2311 50.1486 21.2311C50.3709 21.2311 50.5615 21.3145 50.7204 21.4813C50.8792 21.648 50.9586 21.8466 50.9586 22.0769C50.9586 22.2992 50.8792 22.4898 50.7204 22.6487C50.5615 22.8154 50.3709 22.8988 50.1486 22.8988ZM56.1381 17.443L56.2573 15.7753C56.5432 15.7753 56.7893 15.7475 56.9958 15.6919C57.2023 15.6363 57.377 15.5251 57.52 15.3583C57.6629 15.1836 57.782 14.9295 57.8773 14.5959C57.9806 14.2624 58.0719 13.8177 58.1513 13.2618L59.7118 13.5238C59.696 13.643 59.6721 13.7819 59.6404 13.9408C59.6165 14.0996 59.5927 14.2624 59.5689 14.4292C59.553 14.588 59.5451 14.7389 59.5451 14.8818C59.5451 15.0248 59.5729 15.1518 59.6285 15.263C59.684 15.3742 59.7714 15.4695 59.8905 15.5489C60.0176 15.6204 60.1804 15.676 60.3789 15.7157C60.5854 15.7554 60.8356 15.7753 61.1294 15.7753C61.4312 15.7753 61.6456 15.8547 61.7727 16.0135C61.8997 16.1644 61.9633 16.355 61.9633 16.5853C61.9633 16.8315 61.8799 17.038 61.7131 17.2047C61.5543 17.3636 61.32 17.443 61.0103 17.443C60.6529 17.443 60.3273 17.4152 60.0335 17.3596C59.7476 17.304 59.4974 17.2127 59.283 17.0856C59.0765 16.9506 58.9058 16.7759 58.7708 16.5615C58.6437 16.3391 58.5643 16.0691 58.5325 15.7514H59.1043C58.9614 16.1326 58.7787 16.4384 58.5563 16.6687C58.3419 16.891 58.0997 17.0578 57.8297 17.169C57.5597 17.2802 57.2778 17.3517 56.9839 17.3834C56.698 17.4231 56.4161 17.443 56.1381 17.443ZM59.962 12.1896C59.7317 12.1896 59.5332 12.1102 59.3664 11.9514C59.2076 11.7846 59.1281 11.5901 59.1281 11.3677C59.1281 11.1374 59.2076 10.9389 59.3664 10.7721C59.5332 10.6053 59.7317 10.5219 59.962 10.5219C60.1844 10.5219 60.375 10.6053 60.5338 10.7721C60.6926 10.9389 60.772 11.1374 60.772 11.3677C60.772 11.5901 60.6926 11.7846 60.5338 11.9514C60.375 12.1102 60.1844 12.1896 59.962 12.1896ZM57.9012 12.1777C57.6709 12.1777 57.4723 12.0983 57.3055 11.9395C57.1467 11.7727 57.0673 11.5781 57.0673 11.3558C57.0673 11.1255 57.1467 10.9269 57.3055 10.7602C57.4723 10.5934 57.6709 10.51 57.9012 10.51C58.1235 10.51 58.3141 10.5934 58.473 10.7602C58.6318 10.9269 58.7112 11.1255 58.7112 11.3558C58.7112 11.5781 58.6318 11.7727 58.473 11.9395C58.3141 12.0983 58.1235 12.1777 57.9012 12.1777ZM61.0124 17.443L61.1315 15.7872C61.7907 15.7872 62.3188 15.7832 62.7159 15.7753C63.1209 15.7673 63.4346 15.7514 63.657 15.7276C63.8873 15.6958 64.058 15.6601 64.1692 15.6204C64.2804 15.5727 64.3757 15.5211 64.4551 15.4655C64.5504 15.3941 64.6298 15.2988 64.6933 15.1796C64.7648 15.0526 64.8204 14.8858 64.8601 14.6793C64.8998 14.4728 64.9197 14.2147 64.9197 13.905C64.9197 13.5159 64.8839 13.1903 64.8125 12.9282C64.7489 12.6582 64.6536 12.4557 64.5266 12.3207C64.4074 12.1857 64.2605 12.1182 64.0858 12.1182C63.9587 12.1182 63.8396 12.1619 63.7284 12.2492C63.6173 12.3286 63.5259 12.4398 63.4545 12.5828C63.383 12.7257 63.3472 12.8885 63.3472 13.0712C63.3472 13.1744 63.375 13.2657 63.4306 13.3451C63.4862 13.4246 63.5736 13.4841 63.6927 13.5238C63.8118 13.5635 63.9627 13.5834 64.1454 13.5834C64.3201 13.5834 64.5027 13.5635 64.6933 13.5238C64.8919 13.4762 65.0745 13.4126 65.2413 13.3332L65.289 14.7508C65.1619 14.8382 65.015 14.9176 64.8482 14.989C64.6814 15.0605 64.5027 15.1161 64.3121 15.1558C64.1295 15.1876 63.9429 15.2035 63.7523 15.2035C63.3314 15.2035 62.966 15.1479 62.6563 15.0367C62.3545 14.9176 62.1203 14.727 61.9535 14.4649C61.7867 14.2028 61.7033 13.8455 61.7033 13.3928C61.7033 13.0434 61.7629 12.6979 61.882 12.3564C62.0011 12.007 62.1719 11.6933 62.3943 11.4153C62.6166 11.1295 62.8787 10.9031 63.1805 10.7363C63.4822 10.5616 63.8158 10.4743 64.1811 10.4743C64.7211 10.4743 65.1659 10.6331 65.5153 10.9508C65.8727 11.2605 66.1347 11.6814 66.3015 12.2135C66.4762 12.7376 66.5636 13.3213 66.5636 13.9646C66.5636 14.5284 66.4802 15.0208 66.3134 15.4417C66.1466 15.8547 65.9481 16.1803 65.7178 16.4185C65.5272 16.6171 65.3088 16.7838 65.0626 16.9188C64.8164 17.0538 64.5146 17.1611 64.1573 17.2405C63.8079 17.3119 63.375 17.3636 62.8588 17.3953C62.3506 17.4271 61.7351 17.443 61.0124 17.443ZM64.1573 9.36643C63.9111 9.36643 63.7006 9.28304 63.5259 9.11627C63.3592 8.94949 63.2758 8.74301 63.2758 8.49683C63.2758 8.25064 63.3592 8.04019 63.5259 7.86547C63.7006 7.69076 63.9111 7.6034 64.1573 7.6034C64.3955 7.6034 64.598 7.69076 64.7648 7.86547C64.9395 8.04019 65.0269 8.25064 65.0269 8.49683C65.0269 8.74301 64.9395 8.94949 64.7648 9.11627C64.598 9.28304 64.3955 9.36643 64.1573 9.36643ZM66.8567 20.1352L66.2492 18.658C66.6701 18.5151 67.0553 18.3483 67.4047 18.1577C67.7621 17.9671 68.0718 17.7567 68.3339 17.5264C68.5959 17.2961 68.7984 17.0459 68.9414 16.7759C69.0843 16.4979 69.1558 16.2001 69.1558 15.8825C69.1558 15.5489 69.0804 15.1836 68.9295 14.7865C68.7786 14.3895 68.5959 13.9844 68.3815 13.5715L69.942 12.821C70.085 13.0672 70.2081 13.3332 70.3113 13.6191C70.4225 13.8971 70.5138 14.1472 70.5853 14.3696C70.6568 14.592 70.7044 14.7429 70.7282 14.8223C70.8394 15.2035 70.9903 15.4576 71.1809 15.5847C71.3794 15.7117 71.6971 15.7753 72.1339 15.7753C72.4357 15.7753 72.6501 15.8547 72.7772 16.0135C72.9122 16.1644 72.9797 16.355 72.9797 16.5853C72.9797 16.8315 72.8963 17.038 72.7295 17.2047C72.5627 17.3636 72.3245 17.443 72.0148 17.443C71.6892 17.443 71.4033 17.3953 71.1571 17.3C70.9109 17.2047 70.7123 17.0658 70.5615 16.8831C70.4185 16.7004 70.3272 16.486 70.2875 16.2398L70.7282 16.49C70.6806 16.9109 70.5416 17.308 70.3113 17.6812C70.0889 18.0624 69.7991 18.4119 69.4417 18.7295C69.0843 19.0472 68.6833 19.3251 68.2386 19.5634C67.7938 19.8016 67.3332 19.9922 66.8567 20.1352ZM72.029 17.443L72.1481 15.7753C72.577 15.7753 73.0018 15.7514 73.4227 15.7038C73.8436 15.6561 74.2526 15.5847 74.6497 15.4894C75.0468 15.3941 75.424 15.271 75.7814 15.1201C76.1467 14.9692 76.4882 14.7865 76.8058 14.5721C76.5676 14.4292 76.3095 14.3061 76.0315 14.2028C75.7536 14.0996 75.4558 14.0241 75.1381 13.9765C74.8284 13.9209 74.4988 13.8931 74.1494 13.8931C74.0223 13.8931 73.8873 13.8971 73.7444 13.905C73.6094 13.913 73.4704 13.9288 73.3274 13.9527C73.1845 13.9686 73.0415 13.9924 72.8986 14.0241L72.6604 12.3922C72.8907 12.3286 73.1329 12.2849 73.387 12.2611C73.6491 12.2294 73.8794 12.2135 74.0779 12.2135C74.5068 12.2135 74.8999 12.2611 75.2572 12.3564C75.6226 12.4517 75.9561 12.5708 76.2579 12.7138C76.5676 12.8567 76.8535 12.9997 77.1156 13.1426C77.3856 13.2856 77.6397 13.4047 77.878 13.5C78.1241 13.5953 78.3624 13.643 78.5927 13.643H79.0334L79.224 15.2273C78.8826 15.2432 78.5609 15.3107 78.2591 15.4298C77.9653 15.541 77.6715 15.6839 77.3776 15.8586C77.0917 16.0254 76.782 16.2001 76.4485 16.3828C76.1229 16.5654 75.7536 16.7362 75.3406 16.895C74.9277 17.0538 74.4512 17.1849 73.9111 17.2881C73.3711 17.3914 72.7437 17.443 72.029 17.443Z" fill="#008ECC"/>
<path d="M14.8723 24.2741L14.6571 25.5657H16.4592L16.3731 26.0762H14.571L14.3372 27.4478H16.41L16.3177 28.0137H13.5991L14.3249 23.7082H17.0435L16.9513 24.2741H14.8723ZM18.116 25.8363H20.3609L20.1887 26.353H17.9437L18.116 25.8363ZM22.1056 28.0629C21.6751 28.0629 21.3532 27.9378 21.14 27.6877C20.9308 27.4335 20.8263 27.1177 20.8263 26.7405C20.8263 26.6954 20.8304 26.6236 20.8386 26.5252C20.8673 26.2013 20.9595 25.8999 21.1154 25.6211C21.2753 25.3381 21.4885 25.1126 21.755 24.9445C22.0257 24.7723 22.3311 24.6862 22.6715 24.6862C22.9585 24.6862 23.1943 24.7456 23.3788 24.8645C23.5674 24.9793 23.7027 25.1331 23.7848 25.3258C23.8709 25.5185 23.9098 25.7297 23.9016 25.9593H23.2804C23.2845 25.7379 23.2271 25.5596 23.1082 25.4242C22.9934 25.2848 22.8212 25.2151 22.5915 25.2151C22.3783 25.2151 22.1856 25.2807 22.0134 25.4119C21.8411 25.5432 21.7038 25.7215 21.6013 25.947C21.5029 26.1726 21.4537 26.4247 21.4537 26.7036C21.4537 26.9496 21.5152 27.1485 21.6382 27.3002C21.7612 27.4519 21.9478 27.5278 22.1979 27.5278C22.4316 27.5278 22.6284 27.4601 22.7883 27.3248C22.9524 27.1895 23.0692 27.0111 23.1389 26.7897H23.7602C23.6535 27.1505 23.4567 27.454 23.1697 27.7C22.8827 27.9419 22.528 28.0629 22.1056 28.0629ZM25.5712 28.0567C25.1448 28.0567 24.825 27.9337 24.6117 27.6877C24.3985 27.4376 24.2919 27.1218 24.2919 26.7405C24.2919 26.3632 24.3739 26.0188 24.5379 25.7072C24.7019 25.3914 24.9254 25.1434 25.2084 24.9629C25.4913 24.7784 25.8009 24.6862 26.1371 24.6862C26.5594 24.6862 26.8772 24.8112 27.0905 25.0613C27.3037 25.3115 27.4103 25.6272 27.4103 26.0086C27.4103 26.3817 27.3283 26.7261 27.1643 27.0419C27.0002 27.3535 26.7768 27.6016 26.4938 27.7861C26.215 27.9665 25.9075 28.0567 25.5712 28.0567ZM25.6512 27.5278C25.8562 27.5278 26.0448 27.4622 26.2171 27.3309C26.3893 27.1956 26.5246 27.0152 26.623 26.7897C26.7255 26.5642 26.7768 26.3181 26.7768 26.0516C26.7768 25.8015 26.7132 25.6006 26.5861 25.4488C26.4631 25.293 26.2847 25.2151 26.051 25.2151C25.846 25.2151 25.6573 25.2807 25.4851 25.4119C25.3129 25.5432 25.1755 25.7215 25.073 25.947C24.9746 26.1726 24.9254 26.4186 24.9254 26.6851C24.9254 26.9353 24.9869 27.1382 25.1099 27.294C25.2371 27.4499 25.4175 27.5278 25.6512 27.5278ZM28.37 24.7723H29.0035L28.9051 25.3443H28.9543C28.9748 25.2992 29.0281 25.2254 29.1142 25.1229C29.2044 25.0162 29.3295 24.9178 29.4894 24.8276C29.6493 24.7333 29.838 24.6862 30.0553 24.6862C30.2849 24.6862 30.4653 24.7395 30.5965 24.8461C30.7318 24.9527 30.8262 25.0654 30.8795 25.1844C30.9328 25.3033 30.9594 25.3832 30.9594 25.4242H31.0086C31.0373 25.3668 31.0968 25.2828 31.187 25.1721C31.2813 25.0572 31.4166 24.9486 31.5929 24.8461C31.7734 24.7395 31.9845 24.6862 32.2265 24.6862C32.5586 24.6862 32.8005 24.7887 32.9522 24.9937C33.104 25.1987 33.1798 25.4509 33.1798 25.7502C33.1798 25.865 33.1716 25.9655 33.1552 26.0516L32.8231 28.0137H32.1896L32.5094 26.1131C32.5217 26.0393 32.5278 25.9675 32.5278 25.8978C32.5278 25.6846 32.4684 25.5247 32.3495 25.4181C32.2306 25.3115 32.0809 25.2582 31.9005 25.2582C31.6832 25.2582 31.4822 25.334 31.2977 25.4857C31.1173 25.6334 31.0045 25.8425 30.9594 26.1131L30.6396 28.0137H30.0061L30.3259 26.1131C30.3382 26.0393 30.3444 25.9675 30.3444 25.8978C30.3444 25.6846 30.2849 25.5247 30.166 25.4181C30.0471 25.3115 29.8974 25.2582 29.717 25.2582C29.4997 25.2582 29.2987 25.334 29.1142 25.4857C28.9338 25.6334 28.821 25.8425 28.7759 26.1131L28.4561 28.0137H27.8226L28.37 24.7723ZM34.2083 24.7723H34.8418L34.7434 25.3443H34.7926C34.8131 25.2992 34.8664 25.2254 34.9526 25.1229C35.0428 25.0162 35.1678 24.9178 35.3277 24.8276C35.4877 24.7333 35.6763 24.6862 35.8936 24.6862C36.1232 24.6862 36.3037 24.7395 36.4349 24.8461C36.5702 24.9527 36.6645 25.0654 36.7178 25.1844C36.7711 25.3033 36.7978 25.3832 36.7978 25.4242H36.847C36.8757 25.3668 36.9351 25.2828 37.0253 25.1721C37.1196 25.0572 37.255 24.9486 37.4313 24.8461C37.6117 24.7395 37.8229 24.6862 38.0648 24.6862C38.3969 24.6862 38.6389 24.7887 38.7906 24.9937C38.9423 25.1987 39.0182 25.4509 39.0182 25.7502C39.0182 25.865 39.0099 25.9655 38.9935 26.0516L38.6614 28.0137H38.0279L38.3477 26.1131C38.36 26.0393 38.3662 25.9675 38.3662 25.8978C38.3662 25.6846 38.3067 25.5247 38.1878 25.4181C38.0689 25.3115 37.9192 25.2582 37.7388 25.2582C37.5215 25.2582 37.3206 25.334 37.136 25.4857C36.9556 25.6334 36.8429 25.8425 36.7978 26.1131L36.4779 28.0137H35.8444L36.1642 26.1131C36.1765 26.0393 36.1827 25.9675 36.1827 25.8978C36.1827 25.6846 36.1232 25.5247 36.0043 25.4181C35.8854 25.3115 35.7357 25.2582 35.5553 25.2582C35.338 25.2582 35.1371 25.334 34.9526 25.4857C34.7721 25.6334 34.6594 25.8425 34.6143 26.1131L34.2944 28.0137H33.6609L34.2083 24.7723ZM40.7869 28.0321C40.3564 28.0321 40.0283 27.905 39.8028 27.6508C39.5814 27.3925 39.4707 27.0624 39.4707 26.6605C39.4707 26.2915 39.5486 25.9552 39.7044 25.6518C39.8602 25.3443 40.0816 25.1024 40.3687 24.926C40.6557 24.7456 40.9878 24.6554 41.3651 24.6554C41.7628 24.6554 42.056 24.7436 42.2446 24.9199C42.4332 25.0921 42.5275 25.3033 42.5275 25.5534C42.5275 25.7256 42.4804 25.8855 42.3861 26.0332C42.2959 26.1808 42.1524 26.3017 41.9555 26.396C41.7628 26.4863 41.5229 26.5314 41.2359 26.5314H40.098L40.0919 26.5744C40.0837 26.64 40.0796 26.6872 40.0796 26.7159C40.0796 26.9373 40.1472 27.1259 40.2825 27.2817C40.422 27.4335 40.6106 27.5093 40.8484 27.5093C41.037 27.5093 41.2072 27.4622 41.3589 27.3679C41.5106 27.2694 41.6316 27.1403 41.7218 26.9804H42.3492C42.2139 27.2879 42.015 27.5401 41.7526 27.7369C41.4901 27.9337 41.1682 28.0321 40.7869 28.0321ZM41.2298 26.0947C41.4717 26.0947 41.6459 26.0475 41.7526 25.9532C41.8633 25.8548 41.9186 25.7359 41.9186 25.5965C41.9186 25.4734 41.8694 25.3668 41.771 25.2766C41.6726 25.1864 41.5127 25.1413 41.2913 25.1413C40.996 25.1413 40.75 25.2274 40.5532 25.3996C40.3605 25.5678 40.2354 25.7994 40.178 26.0947H41.2298ZM43.4342 24.7723H44.0677L43.9754 25.2889H44.0185C44.0964 25.1454 44.2112 25.0244 44.3629 24.926C44.5188 24.8235 44.7053 24.7723 44.9227 24.7723C45.0293 24.7723 45.1174 24.7846 45.1871 24.8092L45.0641 25.4119C44.9985 25.3914 44.9432 25.3791 44.8981 25.375C44.857 25.3668 44.8017 25.3627 44.732 25.3627C44.4819 25.3627 44.2789 25.4324 44.1231 25.5719C43.9713 25.7113 43.8688 25.9368 43.8155 26.2484L43.5203 28.0137H42.8868L43.4342 24.7723ZM46.432 28.0629C46.0015 28.0629 45.6796 27.9378 45.4664 27.6877C45.2572 27.4335 45.1527 27.1177 45.1527 26.7405C45.1527 26.6954 45.1568 26.6236 45.165 26.5252C45.1937 26.2013 45.2859 25.8999 45.4418 25.6211C45.6017 25.3381 45.8149 25.1126 46.0814 24.9445C46.3521 24.7723 46.6575 24.6862 46.9979 24.6862C47.2849 24.6862 47.5207 24.7456 47.7052 24.8645C47.8938 24.9793 48.0291 25.1331 48.1112 25.3258C48.1973 25.5185 48.2362 25.7297 48.228 25.9593H47.6068C47.6109 25.7379 47.5535 25.5596 47.4346 25.4242C47.3198 25.2848 47.1475 25.2151 46.9179 25.2151C46.7047 25.2151 46.512 25.2807 46.3398 25.4119C46.1675 25.5432 46.0302 25.7215 45.9277 25.947C45.8293 26.1726 45.78 26.4247 45.78 26.7036C45.78 26.9496 45.8416 27.1485 45.9646 27.3002C46.0876 27.4519 46.2742 27.5278 46.5243 27.5278C46.758 27.5278 46.9548 27.4601 47.1147 27.3248C47.2788 27.1895 47.3956 27.0111 47.4653 26.7897H48.0865C47.9799 27.1505 47.7831 27.454 47.4961 27.7C47.2091 27.9419 46.8544 28.0629 46.432 28.0629ZM49.9468 28.0321C49.5163 28.0321 49.1883 27.905 48.9627 27.6508C48.7413 27.3925 48.6306 27.0624 48.6306 26.6605C48.6306 26.2915 48.7085 25.9552 48.8643 25.6518C49.0201 25.3443 49.2416 25.1024 49.5286 24.926C49.8156 24.7456 50.1478 24.6554 50.525 24.6554C50.9227 24.6554 51.2159 24.7436 51.4045 24.9199C51.5932 25.0921 51.6875 25.3033 51.6875 25.5534C51.6875 25.7256 51.6403 25.8855 51.546 26.0332C51.4558 26.1808 51.3123 26.3017 51.1155 26.396C50.9227 26.4863 50.6829 26.5314 50.3958 26.5314H49.258L49.2518 26.5744C49.2436 26.64 49.2395 26.6872 49.2395 26.7159C49.2395 26.9373 49.3072 27.1259 49.4425 27.2817C49.5819 27.4335 49.7705 27.5093 50.0083 27.5093C50.197 27.5093 50.3671 27.4622 50.5189 27.3679C50.6706 27.2694 50.7915 27.1403 50.8817 26.9804H51.5091C51.3738 27.2879 51.1749 27.5401 50.9125 27.7369C50.6501 27.9337 50.3282 28.0321 49.9468 28.0321ZM50.3897 26.0947C50.6316 26.0947 50.8059 26.0475 50.9125 25.9532C51.0232 25.8548 51.0786 25.7359 51.0786 25.5965C51.0786 25.4734 51.0294 25.3668 50.9309 25.2766C50.8325 25.1864 50.6726 25.1413 50.4512 25.1413C50.156 25.1413 49.9099 25.2274 49.7131 25.3996C49.5204 25.5678 49.3953 25.7994 49.3379 26.0947H50.3897Z" fill="#008ECC"/>
</svg>
