<svg width="479" height="399" viewBox="0 0 479 399" fill="none" xmlns="http://www.w3.org/2000/svg">
<path d="M116.745 124.219C17.9349 215.042 118.992 329.429 81.7373 285.192C39.1376 234.608 41.9116 165.778 97.1058 106.795C152.3 47.8114 237.269 37.6372 286.89 84.0702C334.735 143.868 239.653 11.2456 116.745 124.219Z" fill="#008ECC"/>
<path d="M117.9 235.083C123.361 353.978 298.499 341.566 232.131 345.052C156.241 349.039 98.2986 310.786 88.0545 240.027C77.8104 169.268 132.34 102.809 209.849 91.5877C297.686 88.6832 111.107 87.1931 117.9 235.083Z" fill="#3F5B66"/>
<path d="M240.655 308.485C325.247 327.496 333.438 260.781 328.68 277.094C318.92 310.557 285.354 329.348 238.952 322.197C192.549 315.046 167.682 282.48 162.676 243.328C165.569 199.471 146.037 287.22 240.655 308.485Z" fill="#008ECC"/>
<path d="M197.042 188.664L192.164 218.1H187.034L189.178 205.316H176.142L173.998 218.1H168.909L173.787 188.664H178.918L176.815 201.279H189.851L191.954 188.664H197.042ZM207.08 218.184C204.109 218.184 201.866 217.315 200.352 215.577C198.838 213.811 198.081 211.554 198.081 208.807C198.081 206.284 198.614 203.985 199.679 201.91C200.772 199.836 202.3 198.196 204.263 196.99C206.225 195.757 208.482 195.14 211.033 195.14C213.837 195.14 215.897 195.743 217.215 196.948C218.56 198.126 219.233 199.569 219.233 201.279C219.233 202.457 218.911 203.564 218.266 204.601C217.621 205.639 216.612 206.48 215.238 207.125C213.893 207.769 212.197 208.092 210.15 208.092H202.959L202.917 208.428C202.889 208.624 202.875 208.905 202.875 209.269C202.875 210.615 203.296 211.764 204.137 212.717C205.006 213.643 206.155 214.105 207.585 214.105C208.734 214.105 209.786 213.811 210.739 213.222C211.692 212.633 212.435 211.848 212.967 210.867H217.972C217.075 213.026 215.701 214.792 213.851 216.166C212 217.511 209.743 218.184 207.08 218.184ZM210.066 204.728C211.58 204.728 212.687 204.433 213.388 203.845C214.089 203.228 214.439 202.513 214.439 201.7C214.439 200.943 214.117 200.298 213.472 199.766C212.855 199.205 211.874 198.925 210.528 198.925C208.706 198.925 207.178 199.443 205.945 200.48C204.711 201.518 203.926 202.933 203.59 204.728H210.066ZM225.011 195.897H230.058L229.511 199.429H229.763C230.296 198.448 231.095 197.621 232.16 196.948C233.253 196.247 234.557 195.897 236.071 195.897C236.632 195.897 237.164 195.967 237.669 196.107L236.702 200.859C236.309 200.719 235.959 200.635 235.65 200.607C235.37 200.551 234.978 200.522 234.473 200.522C232.763 200.522 231.389 200.999 230.352 201.952C229.343 202.905 228.67 204.433 228.333 206.536L226.357 218.1H221.311L225.011 195.897ZM251.629 190.64C250.732 190.64 250.045 190.823 249.569 191.187C249.092 191.551 248.756 191.986 248.559 192.491C248.391 192.967 248.237 193.612 248.097 194.425L247.844 195.897H252.891L252.26 199.892H247.172L243.513 221.801C242.812 226.09 240.247 228.235 235.818 228.235C235.201 228.235 234.542 228.193 233.841 228.108C233.14 228.024 232.65 227.94 232.369 227.856L232.958 224.282C233.519 224.422 234.22 224.492 235.061 224.492C235.958 224.492 236.645 224.31 237.121 223.945C237.598 223.581 237.92 223.146 238.088 222.642C238.285 222.137 238.453 221.478 238.593 220.665L242.083 199.892H239.224L239.855 195.897H242.756L243.177 193.458C243.429 191.776 244.102 190.29 245.195 189C246.289 187.683 248.181 187.024 250.872 187.024C251.517 187.024 252.19 187.066 252.891 187.15C253.592 187.234 254.054 187.332 254.278 187.444L253.732 190.809C253.059 190.696 252.358 190.64 251.629 190.64ZM261.493 218.184C258.521 218.184 256.278 217.315 254.765 215.577C253.251 213.811 252.494 211.554 252.494 208.807C252.494 206.284 253.026 203.985 254.092 201.91C255.185 199.836 256.713 198.196 258.675 196.99C260.638 195.757 262.895 195.14 265.446 195.14C268.249 195.14 270.31 195.743 271.627 196.948C272.973 198.126 273.646 199.569 273.646 201.279C273.646 202.457 273.323 203.564 272.679 204.601C272.034 205.639 271.025 206.48 269.651 207.125C268.305 207.769 266.609 208.092 264.563 208.092H257.372L257.33 208.428C257.302 208.624 257.288 208.905 257.288 209.269C257.288 210.615 257.708 211.764 258.549 212.717C259.418 213.643 260.568 214.105 261.997 214.105C263.147 214.105 264.198 213.811 265.151 213.222C266.105 212.633 266.847 211.848 267.38 210.867H272.384C271.487 213.026 270.113 214.792 268.263 216.166C266.413 217.511 264.156 218.184 261.493 218.184ZM264.479 204.728C265.992 204.728 267.1 204.433 267.801 203.845C268.501 203.228 268.852 202.513 268.852 201.7C268.852 200.943 268.53 200.298 267.885 199.766C267.268 199.205 266.287 198.925 264.941 198.925C263.119 198.925 261.591 199.443 260.357 200.48C259.124 201.518 258.339 202.933 258.003 204.728H264.479ZM284.428 210.783C284.26 211.792 284.176 212.451 284.176 212.76C284.176 213.376 284.372 213.839 284.765 214.147C285.157 214.428 285.872 214.568 286.909 214.568C287.386 214.568 288.045 214.498 288.886 214.357L288.297 217.932C288.129 217.988 287.638 218.058 286.825 218.142C286.012 218.226 285.227 218.268 284.47 218.268C282.368 218.268 280.91 217.932 280.097 217.259C279.284 216.558 278.877 215.577 278.877 214.315C278.877 213.53 278.961 212.717 279.13 211.876L281.148 199.892H277.321L277.952 195.897H281.821L283.04 188.664H288.087L286.909 195.897H291.955L291.325 199.892H286.236L284.428 210.783ZM301.016 221.212C300.483 222.221 299.923 223.118 299.334 223.903C298.745 224.688 297.862 225.431 296.685 226.132C295.507 226.861 294.063 227.225 292.353 227.225C291.596 227.225 290.952 227.155 290.419 227.015C289.886 226.903 289.578 226.833 289.494 226.805L290.082 223.188C290.531 223.3 291.12 223.357 291.849 223.357C293.166 223.357 294.175 223.048 294.876 222.431C295.605 221.815 296.362 220.805 297.147 219.404L298.283 217.385L293.825 195.897H298.997L301.605 211.792H301.857L310.057 195.897H315.229L301.016 221.212Z" fill="#3E5A64"/>
<path d="M334.915 216.091C334.915 215.446 334.971 214.689 335.083 213.82C335.195 212.951 335.406 211.97 335.714 210.877C336.022 209.755 336.485 208.508 337.102 207.134L342.274 208.942C341.966 209.811 341.699 210.61 341.475 211.339C341.251 212.04 341.083 212.699 340.97 213.316C340.858 213.904 340.802 214.493 340.802 215.082C340.802 216.007 340.998 216.834 341.391 217.563C341.811 218.32 342.414 218.951 343.199 219.455C343.984 219.988 344.937 220.394 346.059 220.675C347.208 220.955 348.526 221.095 350.012 221.095C351.553 221.095 352.927 221.025 354.133 220.885C355.366 220.745 356.403 220.535 357.244 220.254C358.113 219.974 358.772 219.609 359.221 219.161C359.669 218.74 359.894 218.25 359.894 217.689C359.894 217.437 359.796 217.198 359.599 216.974C359.431 216.75 359.137 216.512 358.716 216.259C358.324 216.007 357.791 215.741 357.118 215.46C356.473 215.18 355.689 214.872 354.763 214.535L356.151 208.606C357.357 209.111 358.492 209.559 359.557 209.952C360.651 210.316 361.688 210.624 362.669 210.877C363.65 211.101 364.575 211.283 365.445 211.423C366.314 211.536 367.127 211.592 367.884 211.592C368.949 211.592 369.706 211.872 370.154 212.433C370.603 212.965 370.827 213.638 370.827 214.451C370.827 215.32 370.533 216.049 369.944 216.638C369.355 217.198 368.528 217.479 367.463 217.479C367.239 217.479 367.014 217.479 366.79 217.479C366.594 217.479 366.384 217.479 366.159 217.479C365.963 217.479 365.753 217.479 365.529 217.479C365.585 217.759 365.613 217.997 365.613 218.194C365.613 218.418 365.613 218.628 365.613 218.824C365.613 219.75 365.29 220.689 364.646 221.642C364.029 222.595 363.062 223.478 361.744 224.291C360.426 225.104 358.744 225.749 356.698 226.226C354.679 226.73 352.268 226.983 349.465 226.983C346.437 226.983 343.83 226.59 341.643 225.805C339.485 225.048 337.817 223.857 336.639 222.231C335.49 220.633 334.915 218.586 334.915 216.091ZM353.586 236.739C352.773 236.739 352.072 236.444 351.483 235.855C350.923 235.295 350.642 234.622 350.642 233.837C350.642 233.024 350.923 232.323 351.483 231.734C352.072 231.146 352.773 230.851 353.586 230.851C354.371 230.851 355.044 231.146 355.604 231.734C356.165 232.323 356.445 233.024 356.445 233.837C356.445 234.622 356.165 235.295 355.604 235.855C355.044 236.444 354.371 236.739 353.586 236.739ZM346.311 236.739C345.498 236.739 344.797 236.444 344.208 235.855C343.648 235.295 343.367 234.622 343.367 233.837C343.367 233.024 343.648 232.323 344.208 231.734C344.797 231.146 345.498 230.851 346.311 230.851C347.096 230.851 347.769 231.146 348.329 231.734C348.89 232.323 349.17 233.024 349.17 233.837C349.17 234.622 348.89 235.295 348.329 235.855C347.769 236.444 347.096 236.739 346.311 236.739ZM367.455 217.479L367.875 211.592C368.885 211.592 369.754 211.493 370.483 211.297C371.211 211.101 371.828 210.708 372.333 210.12C372.837 209.503 373.258 208.606 373.594 207.428C373.959 206.251 374.281 204.681 374.562 202.719L380.07 203.644C380.014 204.064 379.93 204.555 379.818 205.116C379.734 205.676 379.65 206.251 379.566 206.84C379.51 207.4 379.482 207.933 379.482 208.438C379.482 208.942 379.58 209.391 379.776 209.783C379.972 210.176 380.281 210.512 380.701 210.793C381.15 211.045 381.724 211.241 382.425 211.381C383.154 211.521 384.037 211.592 385.074 211.592C386.14 211.592 386.897 211.872 387.345 212.433C387.794 212.965 388.018 213.638 388.018 214.451C388.018 215.32 387.724 216.049 387.135 216.638C386.574 217.198 385.747 217.479 384.654 217.479C383.392 217.479 382.243 217.381 381.206 217.184C380.196 216.988 379.313 216.666 378.556 216.217C377.828 215.741 377.225 215.124 376.748 214.367C376.3 213.582 376.019 212.629 375.907 211.507H377.926C377.421 212.853 376.776 213.932 375.991 214.745C375.234 215.53 374.379 216.119 373.426 216.512C372.473 216.904 371.478 217.156 370.44 217.269C369.431 217.409 368.436 217.479 367.455 217.479ZM380.953 198.934C380.14 198.934 379.44 198.654 378.851 198.093C378.29 197.504 378.01 196.817 378.01 196.032C378.01 195.219 378.29 194.519 378.851 193.93C379.44 193.341 380.14 193.047 380.953 193.047C381.738 193.047 382.411 193.341 382.972 193.93C383.533 194.519 383.813 195.219 383.813 196.032C383.813 196.817 383.533 197.504 382.972 198.093C382.411 198.654 381.738 198.934 380.953 198.934ZM373.678 198.892C372.865 198.892 372.165 198.612 371.576 198.051C371.015 197.462 370.735 196.775 370.735 195.99C370.735 195.177 371.015 194.477 371.576 193.888C372.165 193.299 372.865 193.005 373.678 193.005C374.463 193.005 375.136 193.299 375.697 193.888C376.258 194.477 376.538 195.177 376.538 195.99C376.538 196.775 376.258 197.462 375.697 198.051C375.136 198.612 374.463 198.892 373.678 198.892ZM384.661 217.479L385.082 211.634C387.409 211.634 389.273 211.62 390.675 211.592C392.105 211.564 393.212 211.507 393.997 211.423C394.81 211.311 395.413 211.185 395.805 211.045C396.198 210.877 396.534 210.694 396.814 210.498C397.151 210.246 397.431 209.91 397.655 209.489C397.908 209.04 398.104 208.452 398.244 207.723C398.384 206.994 398.454 206.083 398.454 204.989C398.454 203.616 398.328 202.466 398.076 201.541C397.852 200.588 397.515 199.873 397.067 199.397C396.646 198.92 396.128 198.682 395.511 198.682C395.062 198.682 394.642 198.836 394.249 199.144C393.857 199.425 393.534 199.817 393.282 200.322C393.03 200.826 392.904 201.401 392.904 202.046C392.904 202.41 393.002 202.733 393.198 203.013C393.394 203.293 393.703 203.504 394.123 203.644C394.544 203.784 395.076 203.854 395.721 203.854C396.338 203.854 396.983 203.784 397.655 203.644C398.356 203.476 399.001 203.251 399.59 202.971L399.758 207.975C399.31 208.284 398.791 208.564 398.202 208.816C397.613 209.068 396.983 209.265 396.31 209.405C395.665 209.517 395.006 209.573 394.333 209.573C392.848 209.573 391.558 209.377 390.465 208.984C389.399 208.564 388.572 207.891 387.984 206.966C387.395 206.041 387.1 204.779 387.1 203.181C387.1 201.948 387.311 200.728 387.731 199.523C388.152 198.289 388.755 197.182 389.539 196.201C390.324 195.191 391.25 194.392 392.315 193.804C393.38 193.187 394.558 192.879 395.847 192.879C397.754 192.879 399.324 193.439 400.557 194.561C401.819 195.654 402.744 197.14 403.332 199.018C403.949 200.868 404.258 202.929 404.258 205.2C404.258 207.19 403.963 208.928 403.375 210.414C402.786 211.872 402.085 213.021 401.272 213.862C400.599 214.563 399.828 215.152 398.959 215.629C398.09 216.105 397.025 216.484 395.763 216.764C394.53 217.016 393.002 217.198 391.18 217.311C389.385 217.423 387.213 217.479 384.661 217.479ZM395.763 188.968C394.894 188.968 394.151 188.673 393.534 188.085C392.946 187.496 392.651 186.767 392.651 185.898C392.651 185.029 392.946 184.286 393.534 183.669C394.151 183.052 394.894 182.744 395.763 182.744C396.604 182.744 397.319 183.052 397.908 183.669C398.525 184.286 398.833 185.029 398.833 185.898C398.833 186.767 398.525 187.496 397.908 188.085C397.319 188.673 396.604 188.968 395.763 188.968ZM405.292 226.983L403.148 221.768C404.634 221.263 405.993 220.675 407.227 220.002C408.488 219.329 409.582 218.586 410.507 217.773C411.432 216.96 412.147 216.077 412.652 215.124C413.156 214.143 413.408 213.091 413.408 211.97C413.408 210.793 413.142 209.503 412.609 208.101C412.077 206.7 411.432 205.27 410.675 203.812L416.184 201.163C416.688 202.032 417.123 202.971 417.487 203.98C417.88 204.961 418.202 205.844 418.455 206.629C418.707 207.414 418.875 207.947 418.959 208.227C419.352 209.573 419.884 210.47 420.557 210.919C421.258 211.367 422.379 211.592 423.921 211.592C424.987 211.592 425.744 211.872 426.192 212.433C426.669 212.965 426.907 213.638 426.907 214.451C426.907 215.32 426.613 216.049 426.024 216.638C425.435 217.198 424.594 217.479 423.501 217.479C422.351 217.479 421.342 217.311 420.473 216.974C419.604 216.638 418.903 216.147 418.371 215.502C417.866 214.858 417.544 214.101 417.403 213.232L418.959 214.115C418.791 215.601 418.3 217.002 417.487 218.32C416.703 219.666 415.679 220.899 414.418 222.02C413.156 223.142 411.74 224.123 410.17 224.964C408.601 225.805 406.975 226.478 405.292 226.983ZM423.551 217.479L423.972 211.592C425.486 211.592 426.985 211.507 428.471 211.339C429.957 211.171 431.401 210.919 432.803 210.582C434.204 210.246 435.536 209.811 436.797 209.279C438.087 208.746 439.292 208.101 440.414 207.344C439.573 206.84 438.662 206.405 437.681 206.041C436.699 205.676 435.648 205.41 434.527 205.242C433.433 205.046 432.27 204.947 431.036 204.947C430.588 204.947 430.111 204.961 429.607 204.989C429.13 205.017 428.639 205.074 428.135 205.158C427.63 205.214 427.126 205.298 426.621 205.41L425.78 199.649C426.593 199.425 427.448 199.27 428.345 199.186C429.27 199.074 430.083 199.018 430.784 199.018C432.298 199.018 433.686 199.186 434.947 199.523C436.237 199.859 437.414 200.28 438.479 200.784C439.573 201.289 440.582 201.794 441.507 202.298C442.46 202.803 443.358 203.223 444.199 203.56C445.068 203.896 445.909 204.064 446.722 204.064H448.278L448.95 209.657C447.745 209.713 446.61 209.952 445.544 210.372C444.507 210.765 443.47 211.269 442.432 211.886C441.423 212.475 440.33 213.091 439.152 213.736C438.003 214.381 436.699 214.984 435.242 215.544C433.784 216.105 432.102 216.568 430.195 216.932C428.289 217.297 426.074 217.479 423.551 217.479Z" fill="#008ECC"/>
<path d="M201.69 242.303L200.93 246.863H207.292L206.988 248.665H200.626L199.801 253.507H207.118L206.793 255.504H197.196L199.758 240.306H209.355L209.029 242.303H201.69ZM213.14 247.818H221.066L220.458 249.642H212.533L213.14 247.818ZM227.224 255.678C225.705 255.678 224.568 255.237 223.816 254.354C223.077 253.456 222.708 252.342 222.708 251.01C222.708 250.851 222.723 250.597 222.752 250.25C222.853 249.106 223.179 248.043 223.729 247.058C224.293 246.059 225.046 245.263 225.987 244.67C226.942 244.062 228.021 243.758 229.222 243.758C230.235 243.758 231.068 243.968 231.719 244.388C232.385 244.793 232.862 245.336 233.152 246.016C233.456 246.696 233.593 247.442 233.564 248.252H231.372C231.386 247.471 231.183 246.841 230.764 246.363C230.358 245.871 229.75 245.625 228.94 245.625C228.187 245.625 227.507 245.857 226.899 246.32C226.291 246.783 225.806 247.413 225.444 248.209C225.097 249.005 224.923 249.895 224.923 250.88C224.923 251.748 225.14 252.45 225.574 252.986C226.009 253.521 226.667 253.789 227.55 253.789C228.375 253.789 229.07 253.55 229.635 253.073C230.214 252.595 230.626 251.965 230.872 251.184H233.065C232.689 252.457 231.994 253.529 230.981 254.397C229.967 255.251 228.715 255.678 227.224 255.678ZM239.458 255.656C237.953 255.656 236.824 255.222 236.071 254.354C235.319 253.471 234.942 252.356 234.942 251.01C234.942 249.678 235.232 248.462 235.811 247.362C236.39 246.248 237.179 245.372 238.177 244.735C239.176 244.084 240.269 243.758 241.456 243.758C242.947 243.758 244.069 244.199 244.821 245.082C245.574 245.965 245.95 247.08 245.95 248.426C245.95 249.743 245.661 250.959 245.082 252.074C244.503 253.174 243.714 254.05 242.715 254.701C241.731 255.338 240.645 255.656 239.458 255.656ZM239.741 253.789C240.464 253.789 241.13 253.558 241.738 253.094C242.346 252.617 242.824 251.98 243.171 251.184C243.533 250.387 243.714 249.519 243.714 248.578C243.714 247.695 243.49 246.986 243.041 246.45C242.607 245.9 241.977 245.625 241.152 245.625C240.428 245.625 239.762 245.857 239.154 246.32C238.546 246.783 238.062 247.413 237.7 248.209C237.352 249.005 237.179 249.874 237.179 250.814C237.179 251.697 237.396 252.414 237.83 252.964C238.279 253.514 238.916 253.789 239.741 253.789ZM249.338 244.062H251.575L251.227 246.081H251.401C251.473 245.922 251.662 245.661 251.965 245.3C252.284 244.923 252.725 244.576 253.29 244.257C253.854 243.924 254.52 243.758 255.288 243.758C256.098 243.758 256.735 243.946 257.198 244.322C257.676 244.699 258.009 245.097 258.197 245.517C258.385 245.936 258.479 246.219 258.479 246.363H258.653C258.754 246.161 258.964 245.864 259.283 245.473C259.616 245.068 260.093 244.684 260.716 244.322C261.353 243.946 262.098 243.758 262.952 243.758C264.124 243.758 264.979 244.12 265.514 244.844C266.05 245.567 266.317 246.458 266.317 247.514C266.317 247.919 266.289 248.274 266.231 248.578L265.058 255.504H262.822L263.951 248.795C263.994 248.535 264.016 248.281 264.016 248.035C264.016 247.283 263.806 246.718 263.386 246.342C262.966 245.965 262.438 245.777 261.801 245.777C261.034 245.777 260.325 246.045 259.673 246.581C259.037 247.102 258.638 247.84 258.479 248.795L257.35 255.504H255.114L256.243 248.795C256.286 248.535 256.308 248.281 256.308 248.035C256.308 247.283 256.098 246.718 255.678 246.342C255.259 245.965 254.73 245.777 254.093 245.777C253.326 245.777 252.617 246.045 251.965 246.581C251.329 247.102 250.931 247.84 250.771 248.795L249.642 255.504H247.406L249.338 244.062ZM269.948 244.062H272.185L271.837 246.081H272.011C272.083 245.922 272.271 245.661 272.575 245.3C272.894 244.923 273.335 244.576 273.9 244.257C274.464 243.924 275.13 243.758 275.897 243.758C276.708 243.758 277.345 243.946 277.808 244.322C278.286 244.699 278.619 245.097 278.807 245.517C278.995 245.936 279.089 246.219 279.089 246.363H279.263C279.364 246.161 279.574 245.864 279.893 245.473C280.225 245.068 280.703 244.684 281.326 244.322C281.962 243.946 282.708 243.758 283.562 243.758C284.734 243.758 285.588 244.12 286.124 244.844C286.66 245.567 286.927 246.458 286.927 247.514C286.927 247.919 286.898 248.274 286.841 248.578L285.668 255.504H283.432L284.561 248.795C284.604 248.535 284.626 248.281 284.626 248.035C284.626 247.283 284.416 246.718 283.996 246.342C283.576 245.965 283.048 245.777 282.411 245.777C281.644 245.777 280.935 246.045 280.283 246.581C279.646 247.102 279.248 247.84 279.089 248.795L277.96 255.504H275.724L276.853 248.795C276.896 248.535 276.918 248.281 276.918 248.035C276.918 247.283 276.708 246.718 276.288 246.342C275.868 245.965 275.34 245.777 274.703 245.777C273.936 245.777 273.227 246.045 272.575 246.581C271.939 247.102 271.54 247.84 271.381 248.795L270.252 255.504H268.016L269.948 244.062ZM293.171 255.57C291.651 255.57 290.493 255.121 289.697 254.223C288.916 253.311 288.525 252.146 288.525 250.728C288.525 249.425 288.8 248.238 289.35 247.167C289.9 246.081 290.682 245.227 291.695 244.605C292.708 243.968 293.881 243.649 295.212 243.649C296.616 243.649 297.651 243.961 298.317 244.583C298.983 245.191 299.316 245.936 299.316 246.819C299.316 247.427 299.149 247.992 298.816 248.513C298.498 249.034 297.991 249.461 297.297 249.794C296.616 250.112 295.77 250.272 294.756 250.272H290.739L290.718 250.424C290.689 250.655 290.674 250.822 290.674 250.923C290.674 251.705 290.913 252.371 291.391 252.921C291.883 253.456 292.549 253.724 293.388 253.724C294.054 253.724 294.655 253.558 295.191 253.225C295.726 252.877 296.153 252.421 296.472 251.857H298.686C298.209 252.942 297.507 253.833 296.58 254.527C295.654 255.222 294.517 255.57 293.171 255.57ZM294.735 248.73C295.589 248.73 296.204 248.564 296.58 248.231C296.971 247.883 297.166 247.464 297.166 246.971C297.166 246.537 296.993 246.161 296.645 245.842C296.298 245.524 295.733 245.365 294.952 245.365C293.909 245.365 293.041 245.669 292.346 246.277C291.666 246.87 291.224 247.688 291.022 248.73H294.735ZM302.516 244.062H304.753L304.427 245.886H304.579C304.854 245.379 305.259 244.952 305.795 244.605C306.345 244.243 307.004 244.062 307.771 244.062C308.147 244.062 308.458 244.105 308.705 244.192L308.27 246.32C308.039 246.248 307.843 246.204 307.684 246.19C307.539 246.161 307.344 246.146 307.098 246.146C306.215 246.146 305.498 246.392 304.948 246.885C304.413 247.377 304.051 248.173 303.863 249.273L302.82 255.504H300.584L302.516 244.062ZM313.099 255.678C311.579 255.678 310.443 255.237 309.69 254.354C308.952 253.456 308.583 252.342 308.583 251.01C308.583 250.851 308.597 250.597 308.626 250.25C308.728 249.106 309.053 248.043 309.603 247.058C310.168 246.059 310.921 245.263 311.861 244.67C312.817 244.062 313.895 243.758 315.097 243.758C316.11 243.758 316.942 243.968 317.594 244.388C318.259 244.793 318.737 245.336 319.027 246.016C319.331 246.696 319.468 247.442 319.439 248.252H317.246C317.261 247.471 317.058 246.841 316.638 246.363C316.233 245.871 315.625 245.625 314.814 245.625C314.062 245.625 313.381 245.857 312.773 246.32C312.165 246.783 311.681 247.413 311.319 248.209C310.971 249.005 310.798 249.895 310.798 250.88C310.798 251.748 311.015 252.45 311.449 252.986C311.883 253.521 312.542 253.789 313.425 253.789C314.25 253.789 314.945 253.55 315.509 253.073C316.088 252.595 316.501 251.965 316.747 251.184H318.94C318.563 252.457 317.869 253.529 316.855 254.397C315.842 255.251 314.59 255.678 313.099 255.678ZM325.507 255.57C323.987 255.57 322.829 255.121 322.033 254.223C321.251 253.311 320.86 252.146 320.86 250.728C320.86 249.425 321.135 248.238 321.685 247.167C322.235 246.081 323.017 245.227 324.03 244.605C325.044 243.968 326.216 243.649 327.548 243.649C328.952 243.649 329.987 243.961 330.653 244.583C331.318 245.191 331.651 245.936 331.651 246.819C331.651 247.427 331.485 247.992 331.152 248.513C330.834 249.034 330.327 249.461 329.632 249.794C328.952 250.112 328.105 250.272 327.092 250.272H323.075L323.053 250.424C323.024 250.655 323.01 250.822 323.01 250.923C323.01 251.705 323.249 252.371 323.726 252.921C324.218 253.456 324.884 253.724 325.724 253.724C326.39 253.724 326.99 253.558 327.526 253.225C328.062 252.877 328.489 252.421 328.807 251.857H331.022C330.544 252.942 329.842 253.833 328.916 254.527C327.989 255.222 326.853 255.57 325.507 255.57ZM327.07 248.73C327.924 248.73 328.539 248.564 328.916 248.231C329.306 247.883 329.502 247.464 329.502 246.971C329.502 246.537 329.328 246.161 328.981 245.842C328.633 245.524 328.069 245.365 327.287 245.365C326.245 245.365 325.376 245.669 324.682 246.277C324.001 246.87 323.56 247.688 323.357 248.73H327.07Z" fill="#008ECC"/>
</svg>
