<svg width="95" height="104" viewBox="0 0 95 104" fill="none" xmlns="http://www.w3.org/2000/svg">
<path d="M33.5717 35.1881C5.58097 60.9164 34.2082 93.3197 23.6548 80.7883C11.5872 66.459 12.373 46.9611 28.0083 30.2524C43.6437 13.5436 67.7136 10.6615 81.7701 23.815C95.3235 40.7542 68.3887 3.18533 33.5717 35.1881Z" fill="#008ECC"/>
<path d="M33.8992 66.594C35.4462 100.274 85.0589 96.7582 66.2583 97.7457C44.7604 98.875 28.3465 88.039 25.4446 67.9944C22.5427 47.9498 37.9896 29.1235 59.9464 25.9448C84.8286 25.122 31.9749 24.6999 33.8992 66.594Z" fill="#3F5B66"/>
<path d="M68.6724 87.3866C92.6352 92.7722 94.9556 73.8733 93.6077 78.4945C90.8429 87.9736 81.3346 93.2967 68.1898 91.2711C55.0449 89.2454 48.0007 80.02 46.5824 68.9293C47.4021 56.5056 41.8692 81.3627 68.6724 87.3866Z" fill="#008ECC"/>
</svg>
